<?xml version="1.0" encoding="UTF-8"?>
<svg version="1.1" xmlns="http://www.w3.org/2000/svg" width="236" height="236">
<path d="M0 0 C77.88 0 155.76 0 236 0 C236 77.88 236 155.76 236 236 C158.12 236 80.24 236 0 236 C0 158.12 0 80.24 0 0 Z " fill="#FCFDFD" transform="translate(0,0)"/>
<path d="M0 0 C1.65 0 3.3 0 5 0 C5.33 0.66 5.66 1.32 6 2 C6.99 1.34 7.98 0.68 9 0 C12.68359118 -0.27285861 15.313046 -0.28102664 18.75 1.125 C19.4925 1.41375 20.235 1.7025 21 2 C21.99 1.34 22.98 0.68 24 0 C28.98885232 -0.46193077 31.98880248 -0.06738634 36 3 C37.59412284 6.18824568 37.10174735 9.62896662 37.0625 13.125 C37.05798828 13.87910156 37.05347656 14.63320312 37.04882812 15.41015625 C37.03703499 17.27347127 37.01909942 19.13674555 37 21 C35.35 21 33.7 21 32 21 C31.67 16.05 31.34 11.1 31 6 C24.59628479 4.5527864 24.59628479 4.5527864 21 6 C21 10.95 21 15.9 21 21 C19.35 21 17.7 21 16 21 C15.93941406 19.92878906 15.87882812 18.85757813 15.81640625 17.75390625 C15.73201463 16.35675609 15.64736594 14.95962143 15.5625 13.5625 C15.52318359 12.85544922 15.48386719 12.14839844 15.44335938 11.41992188 C15.52375562 7.91309581 15.52375562 7.91309581 14 5 C11.04182893 4.74994614 11.04182893 4.74994614 8 5 C5.14206684 7.85793316 5.59200059 10.14665584 5.375 14.125 C5.26285156 16.04699219 5.26285156 16.04699219 5.1484375 18.0078125 C5.09945312 18.99523437 5.05046875 19.98265625 5 21 C3.35 21 1.7 21 0 21 C0 14.07 0 7.14 0 0 Z " fill="#3E4B54" transform="translate(80,111)"/>
<path d="M0 0 C0.76183594 -0.01417969 1.52367187 -0.02835937 2.30859375 -0.04296875 C4.865332 0.21846549 6.40136845 0.8063947 8.5625 2.1875 C11.09025351 5.97913027 10.78693035 8.99624031 10.6875 13.375 C10.67847656 14.12458984 10.66945312 14.87417969 10.66015625 15.64648438 C10.63662578 17.49362654 10.60075561 19.34060412 10.5625 21.1875 C9.2425 21.1875 7.9225 21.1875 6.5625 21.1875 C6.5625 20.5275 6.5625 19.8675 6.5625 19.1875 C5.9025 19.1875 5.2425 19.1875 4.5625 19.1875 C4.5625 19.8475 4.5625 20.5075 4.5625 21.1875 C2.62568839 21.26857583 0.6879066 21.32672475 -1.25 21.375 C-2.32894531 21.40980469 -3.40789062 21.44460937 -4.51953125 21.48046875 C-7.4375 21.1875 -7.4375 21.1875 -9.30078125 19.86328125 C-11.07071345 17.25399976 -10.82028316 15.2497653 -10.4375 12.1875 C-8.89243534 10.15082385 -7.71603844 9.32676922 -5.4375 8.1875 C-0.88202917 7.92964316 2.4405636 8.18898538 6.5625 10.1875 C5.9025 8.5375 5.2425 6.8875 4.5625 5.1875 C2.95842672 5.16041433 1.3542215 5.14106517 -0.25 5.125 C-1.14332031 5.11339844 -2.03664062 5.10179688 -2.95703125 5.08984375 C-5.57163791 5.07740033 -5.57163791 5.07740033 -8.4375 6.1875 C-8.1075 4.5375 -7.7775 2.8875 -7.4375 1.1875 C-4.66697819 0.26399273 -2.87061242 0.02420415 0 0 Z " fill="#0F1C29" transform="translate(131.4375,110.8125)"/>
<path d="M0 0 C2.31646862 1.80169782 3.81806911 3.18759736 5.25 5.75 C5.25 7.4 5.25 9.05 5.25 10.75 C-0.69 10.75 -6.63 10.75 -12.75 10.75 C-11.25 14.75 -11.25 14.75 -8.75 15.75 C-6.87137125 15.66255632 -4.99544819 15.50824458 -3.125 15.3125 C-2.12210938 15.21066406 -1.11921875 15.10882813 -0.0859375 15.00390625 C1.07035156 14.87822266 1.07035156 14.87822266 2.25 14.75 C2.25 16.07 2.25 17.39 2.25 18.75 C-1.92333483 20.83666742 -7.20442676 20.19849656 -11.75 19.75 C-15.42930728 17.65784488 -16.4204934 16.73851981 -17.75 12.75 C-18.12935127 8.65300628 -18.19928789 6.47206983 -16 2.9375 C-11.26994016 -1.66116929 -6.25535594 -2.84334361 0 0 Z " fill="#25343D" transform="translate(71.75,112.25)"/>
<path d="M0 0 C0 2.31 0 4.62 0 7 C-1.00160156 7.45890625 -2.00320312 7.9178125 -3.03515625 8.390625 C-4.3776804 9.01025153 -5.72012401 9.63005256 -7.0625 10.25 C-7.71927734 10.55035156 -8.37605469 10.85070312 -9.05273438 11.16015625 C-13.51327964 13.22563041 -17.76190136 15.50894592 -22 18 C-20.02 18.99 -18.04 19.98 -16 21 C-16 23.31 -16 25.62 -16 28 C-21.28 26.02 -26.56 24.04 -32 22 C-32 19.36 -32 16.72 -32 14 C-31.09121094 13.57589844 -30.18242187 13.15179688 -29.24609375 12.71484375 C-28.34540161 12.29440796 -28.34540161 12.29440796 -27.42651367 11.86547852 C-26.08966909 11.24177086 -24.75258835 10.61856915 -23.4152832 9.99584961 C-19.84932072 8.33445897 -16.28777483 6.6646735 -12.734375 4.9765625 C-12.05576416 4.6556665 -11.37715332 4.33477051 -10.67797852 4.00415039 C-9.36711446 3.38401024 -8.05766318 2.76087347 -6.74975586 2.13452148 C-2.22486481 0 -2.22486481 0 0 0 Z " fill="#39C77E" transform="translate(41,97)"/>
<path d="M0 0 C0.33 0 0.66 0 1 0 C1.27429625 5.39449293 1.36055646 8.51925805 -2 13 C-1.01 13 -0.02 13 1 13 C1.08737099 18.15488852 1.08737099 18.15488852 0 21 C-2.7507722 23.24405101 -5.75824759 24.59433257 -9 26 C-10.04220703 26.56074219 -10.04220703 26.56074219 -11.10546875 27.1328125 C-13 28 -13 28 -16 28 C-16.04125 26.906875 -16.0825 25.81375 -16.125 24.6875 C-16.60565398 20.75003667 -16.60565398 20.75003667 -20.0625 19.0625 C-21.5165625 18.5365625 -21.5165625 18.5365625 -23 18 C-20.44394789 15.73106607 -17.84629097 14.45267479 -14.70703125 13.203125 C-13.91232422 12.8834375 -13.11761719 12.56375 -12.29882812 12.234375 C-10.63640087 11.57619484 -8.96690554 10.93560392 -7.29101562 10.3125 C-4.97924144 9.36292038 -3.00070914 8.50067505 -1 7 C0.2059158 3.3665853 0.2059158 3.3665853 0 0 Z " fill="#F9FBF0" transform="translate(41,97)"/>
<path d="M0 0 C-0.33 1.32 -0.66 2.64 -1 4 C-4.96 4 -8.92 4 -13 4 C-13.33 4.99 -13.66 5.98 -14 7 C-13.25234375 7.03738281 -12.5046875 7.07476562 -11.734375 7.11328125 C-10.25710937 7.21189453 -10.25710937 7.21189453 -8.75 7.3125 C-7.77546875 7.37050781 -6.8009375 7.42851563 -5.796875 7.48828125 C-2.74658389 8.04636524 -1.29288724 8.96369776 1 11 C0.875 14.3125 0.875 14.3125 0 18 C-4.54281648 21.43481246 -8.54057402 21.43328778 -14 21 C-17 20 -17 20 -19 19 C-18.67 17.68 -18.34 16.36 -18 15 C-17.319375 15.165 -16.63875 15.33 -15.9375 15.5 C-11.93763809 16.18082756 -7.71583773 16.85791887 -4 15 C-4 14.34 -4 13.68 -4 13 C-4.92683594 12.79503906 -5.85367188 12.59007813 -6.80859375 12.37890625 C-8.00613281 12.10949219 -9.20367187 11.84007813 -10.4375 11.5625 C-11.63246094 11.29566406 -12.82742187 11.02882813 -14.05859375 10.75390625 C-17 10 -17 10 -18 9 C-18.375 5.625 -18.375 5.625 -18 2 C-13.18197009 -2.66746648 -6.0423871 -1.51059677 0 0 Z " fill="#32414A" transform="translate(226,112)"/>
<path d="M0 0 C1.98 0 3.96 0 6 0 C6.83739781 2.1234016 7.66980283 4.2487728 8.5 6.375 C8.9640625 7.55835937 9.428125 8.74171875 9.90625 9.9609375 C11 13 11 13 11 15 C11.66 15 12.32 15 13 15 C13.12246094 14.28457031 13.24492187 13.56914063 13.37109375 12.83203125 C14.01135375 9.94887287 14.93551556 7.41407527 16.0625 4.6875 C16.42472656 3.80449219 16.78695312 2.92148438 17.16015625 2.01171875 C17.43730469 1.34785156 17.71445313 0.68398437 18 0 C19.65 0 21.3 0 23 0 C22.41519208 3.44075861 21.54264073 6.32284397 20.0390625 9.46875 C19.64976562 10.28730469 19.26046875 11.10585937 18.859375 11.94921875 C18.45203125 12.79097656 18.0446875 13.63273437 17.625 14.5 C17.02558594 15.76263672 17.02558594 15.76263672 16.4140625 17.05078125 C14.44881641 21.15581831 12.4442609 25.15226026 10 29 C8.35 28.67 6.7 28.34 5 28 C5.309375 27.46375 5.61875 26.9275 5.9375 26.375 C7.53780962 22.79783731 8.58893884 19.80941878 7.32836914 15.93652344 C6.30957417 13.6448054 5.21210496 11.41640349 4.0625 9.1875 C3.30227677 7.66070777 2.54310269 6.13339253 1.78515625 4.60546875 C1.44363525 3.93668701 1.10211426 3.26790527 0.75024414 2.57885742 C0 1 0 1 0 0 Z " fill="#182732" transform="translate(183,112)"/>
<path d="M0 0 C0 1.32 0 2.64 0 4 C-0.84304687 3.96519531 -1.68609375 3.93039063 -2.5546875 3.89453125 C-4.19824219 3.85392578 -4.19824219 3.85392578 -5.875 3.8125 C-6.96554688 3.77769531 -8.05609375 3.74289063 -9.1796875 3.70703125 C-10.57574219 3.85205078 -10.57574219 3.85205078 -12 4 C-12.99 5.485 -12.99 5.485 -14 7 C-13.25234375 7.04898438 -12.5046875 7.09796875 -11.734375 7.1484375 C-10.74953125 7.22320312 -9.7646875 7.29796875 -8.75 7.375 C-7.77546875 7.44460937 -6.8009375 7.51421875 -5.796875 7.5859375 C-3.10366811 7.98465249 -1.33036721 8.63507063 1 10 C1.25 13.3125 1.25 13.3125 1 17 C-1.34029636 19.50582952 -2.73387023 19.97240136 -6.1640625 20.328125 C-7.30617187 20.30234375 -8.44828125 20.2765625 -9.625 20.25 C-10.77226562 20.23453125 -11.91953125 20.2190625 -13.1015625 20.203125 C-16 20 -16 20 -18 19 C-18 17.68 -18 16.36 -18 15 C-17.38125 15.165 -16.7625 15.33 -16.125 15.5 C-11.74529271 16.20075317 -7.42571011 16.07734251 -3 16 C-3 14.68 -3 13.36 -3 12 C-3.74765625 11.96261719 -4.4953125 11.92523438 -5.265625 11.88671875 C-6.74289063 11.78810547 -6.74289063 11.78810547 -8.25 11.6875 C-9.22453125 11.62949219 -10.1990625 11.57148437 -11.203125 11.51171875 C-14.29268899 10.94644936 -15.74747402 10.15823419 -18 8 C-18.625 5.5625 -18.625 5.5625 -18 3 C-12.68176101 -1.91937106 -6.78835262 -2.26278421 0 0 Z " fill="#15202C" transform="translate(180,112)"/>
<path d="M0 0 C4.99184736 -0.29363808 7.97444744 -0.07836372 12 3 C13.59412284 6.18824568 13.10174735 9.62896662 13.0625 13.125 C13.05798828 13.87910156 13.05347656 14.63320312 13.04882812 15.41015625 C13.03703499 17.27347127 13.01909942 19.13674555 13 21 C11.35 21 9.7 21 8 21 C7.67 16.05 7.34 11.1 7 6 C0.59628479 4.5527864 0.59628479 4.5527864 -3 6 C-3 10.95 -3 15.9 -3 21 C-4.32 21 -5.64 21 -7 21 C-7 16.71 -7 12.42 -7 8 C-6.67 8 -6.34 8 -6 8 C-6 11.63 -6 15.26 -6 19 C-5.34 19 -4.68 19 -4 19 C-4.14069196 16.87465341 -4.28770921 14.74972471 -4.4375 12.625 C-4.55931641 10.84996094 -4.55931641 10.84996094 -4.68359375 9.0390625 C-4.81084936 6.08481099 -4.81084936 6.08481099 -6 4 C-4.68 4 -3.36 4 -2 4 C-1.34 2.68 -0.68 1.36 0 0 Z " fill="#233340" transform="translate(104,111)"/>
<path d="M0 0 C0 2.31 0 4.62 0 7 C-19.23404255 17 -19.23404255 17 -24 17 C-24 14.69 -24 12.38 -24 10 C-20.37777789 8.32724698 -16.7517834 6.66283749 -13.125 5 C-11.57619141 4.28457031 -11.57619141 4.28457031 -9.99609375 3.5546875 C-9.00996094 3.10351562 -8.02382813 2.65234375 -7.0078125 2.1875 C-6.09660645 1.76855469 -5.18540039 1.34960938 -4.24658203 0.91796875 C-2 0 -2 0 0 0 Z " fill="#6B7DB1" transform="translate(41,125)"/>
<path d="M0 0 C0.66 0 1.32 0 2 0 C2.36681223 7.45851528 2.36681223 7.45851528 0.6875 9.9375 C-3.11061951 12.32890858 -6.62790463 12.38351714 -11 12 C-13.4375 10 -13.4375 10 -15 8 C-14.67 7.01 -14.34 6.02 -14 5 C-14.66 4.67 -15.32 4.34 -16 4 C-12.34471125 1.6606152 -9.26476789 1.70071804 -5 2 C-2.0625 3 -2.0625 3 0 4 C0 2.68 0 1.36 0 0 Z " fill="#182734" transform="translate(138,117)"/>
<path d="M0 0 C0.66 0 1.32 0 2 0 C2.2878026 3.05070757 2.44198649 5.95999538 2 9 C-0.83244597 11.52623559 -2.21564776 12 -6 12 C-5.34 10.68 -4.68 9.36 -4 8 C-4.74765625 8.10699219 -5.4953125 8.21398437 -6.265625 8.32421875 C-7.74289063 8.50404297 -7.74289063 8.50404297 -9.25 8.6875 C-10.22453125 8.81511719 -11.1990625 8.94273437 -12.203125 9.07421875 C-15.5170876 8.9862784 -16.72047984 8.37178645 -19 6 C-19 5.01 -19 4.02 -19 3 C-13.06 3 -7.12 3 -1 3 C-0.67 2.01 -0.34 1.02 0 0 Z " fill="#F0F4F5" transform="translate(78,120)"/>
<path d="M0 0 C0 1.65 0 3.3 0 5 C-1.134375 5.309375 -2.26875 5.61875 -3.4375 5.9375 C-6.78775099 6.62924531 -6.78775099 6.62924531 -8 8 C-8.23481693 10.18292774 -8.41363323 12.37203174 -8.5625 14.5625 C-8.68818359 16.35880859 -8.68818359 16.35880859 -8.81640625 18.19140625 C-8.87699219 19.11824219 -8.93757812 20.04507813 -9 21 C-10.32 21 -11.64 21 -13 21 C-13 14.4 -13 7.8 -13 1 C-11.68 1 -10.36 1 -9 1 C-8.67 1.66 -8.34 2.32 -8 3 C-7.608125 2.505 -7.21625 2.01 -6.8125 1.5 C-4.44908285 -0.45593143 -2.98564997 -0.24207973 0 0 Z " fill="#081A26" transform="translate(160,111)"/>
<path d="M0 0 C0 1.98 0 3.96 0 6 C-1.4160599 6.79275148 -2.83287553 7.58415312 -4.25 8.375 C-5.03890625 8.81585938 -5.8278125 9.25671875 -6.640625 9.7109375 C-7.80851562 10.34902344 -7.80851562 10.34902344 -9 11 C-9.69609375 11.38414063 -10.3921875 11.76828125 -11.109375 12.1640625 C-13 13 -13 13 -16 13 C-16 10.69 -16 8.38 -16 6 C-15.34 6 -14.68 6 -14 6 C-14 5.34 -14 4.68 -14 4 C-12.42032193 3.32471777 -10.83608097 2.66010306 -9.25 2 C-8.36828125 1.62875 -7.4865625 1.2575 -6.578125 0.875 C-4 0 -4 0 0 0 Z " fill="#D4DE42" transform="translate(41,112)"/>
<path d="M0 0 C-0.33 1.32 -0.66 2.64 -1 4 C-4.96 4 -8.92 4 -13 4 C-13.33 4.99 -13.66 5.98 -14 7 C-11.69 7.33 -9.38 7.66 -7 8 C-7 8.66 -7 9.32 -7 10 C-6.34 10.33 -5.68 10.66 -5 11 C-6.60379341 11.05416188 -8.20811406 11.09286638 -9.8125 11.125 C-10.70582031 11.14820312 -11.59914062 11.17140625 -12.51953125 11.1953125 C-15 11 -15 11 -18 9 C-18.5 5.5625 -18.5 5.5625 -18 2 C-13.18197009 -2.66746648 -6.0423871 -1.51059677 0 0 Z " fill="#192A35" transform="translate(226,112)"/>
<path d="M0 0 C1.5625 1.75 1.5625 1.75 3 4 C2.73495121 7.00388632 2.16695725 7.83304275 0 10 C-0.69748583 11.31747324 -1.36959957 12.64914193 -2 14 C-2.33 12.35 -2.66 10.7 -3 9 C-3.84304687 8.86722656 -4.68609375 8.73445313 -5.5546875 8.59765625 C-6.65039062 8.42105469 -7.74609375 8.24445313 -8.875 8.0625 C-9.96554688 7.88847656 -11.05609375 7.71445313 -12.1796875 7.53515625 C-15 7 -15 7 -17 6 C-16.34 4.68 -15.68 3.36 -15 2 C-7.42467719 1.87374462 -7.42467719 1.87374462 -4.6875 2.6875 C-4.130625 2.790625 -3.57375 2.89375 -3 3 C-1.22809091 1.64555699 -1.22809091 1.64555699 0 0 Z " fill="#E7EBED" transform="translate(183,113)"/>
<path d="M0 0 C0 2.31 0 4.62 0 7 C-2.1293392 6.24123547 -4.25337573 5.4675766 -6.375 4.6875 C-7.55835938 4.25824219 -8.74171875 3.82898438 -9.9609375 3.38671875 C-13 2 -13 2 -15 -1 C-9.04486332 -3.35435636 -5.55021184 -3.08345102 0 0 Z " fill="#448679" transform="translate(25,118)"/>
<path d="M0 0 C0 1.32 0 2.64 0 4 C-5 4 -10 4 -15 4 C-15 5.32 -15 6.64 -15 8 C-14.01 8.66 -13.02 9.32 -12 10 C-16.875 9.125 -16.875 9.125 -18 8 C-18.4375 5.6875 -18.4375 5.6875 -18 3 C-12.68176101 -1.91937106 -6.78835262 -2.26278421 0 0 Z " fill="#212E39" transform="translate(180,112)"/>
<path d="M0 0 C4.5067218 -0.17673419 7.96625544 -0.13551182 12 2 C12.33 2.66 12.66 3.32 13 4 C11.68 4 10.36 4 9 4 C9.66 4.33 10.32 4.66 11 5 C11 9.62 11 14.24 11 19 C10.34 19 9.68 19 9 19 C8.34 19.66 7.68 20.32 7 21 C6.67 15.39 6.34 9.78 6 4 C4.02 3.01 2.04 2.02 0 1 C0 0.67 0 0.34 0 0 Z " fill="#283A46" transform="translate(89,111)"/>
<path d="M0 0 C5.52677733 -0.19392201 9.75614911 0.2520497 15 2 C14 5 14 5 12 6 C7.52326748 6.17218202 3.39401026 5.85736786 -1 5 C-0.67 3.35 -0.34 1.7 0 0 Z " fill="#F0F3F2" transform="translate(208,123)"/>
<path d="M0 0 C0.99 0.33 1.98 0.66 3 1 C3 2.32 3 3.64 3 5 C-2.33646866 6.77882289 -6.95258476 6.44723163 -12 4 C-11.34 3.67 -10.68 3.34 -10 3 C-10 2.34 -10 1.68 -10 1 C-6.85658007 -0.57170996 -3.44228549 -0.23175783 0 0 Z " fill="#E9EEF0" transform="translate(174,123)"/>
<path d="M0 0 C3.63 0 7.26 0 11 0 C11.33 1.32 11.66 2.64 12 4 C8.36534398 6.32617985 5.23963281 6.31404687 1 6 C0.34 5.34 -0.32 4.68 -1 4 C-0.67 2.68 -0.34 1.36 0 0 Z " fill="#E7EDEF" transform="translate(126,123)"/>
<path d="M0 0 C0.33 0 0.66 0 1 0 C1 1.65 1 3.3 1 5 C1.99 4.67 2.98 4.34 4 4 C4 9.28 4 14.56 4 20 C2.68 20 1.36 20 0 20 C0 13.4 0 6.8 0 0 Z " fill="#071926" transform="translate(81,112)"/>
<path d="M0 0 C1.4370809 -0.05422947 2.87475462 -0.09289723 4.3125 -0.125 C5.11300781 -0.14820312 5.91351563 -0.17140625 6.73828125 -0.1953125 C9 0 9 0 12 2 C12.33 2.99 12.66 3.98 13 5 C13.66 5.33 14.32 5.66 15 6 C14.01 6.33 13.02 6.66 12 7 C11.34 6.67 10.68 6.34 10 6 C8.50420396 5.79907217 7.00303276 5.63663934 5.5 5.5 C1.22222222 5.11111111 1.22222222 5.11111111 -1 4 C-0.67 2.68 -0.34 1.36 0 0 Z " fill="#EBEFF0" transform="translate(213,115)"/>
<path d="M0 0 C1.37478516 0.01740234 1.37478516 0.01740234 2.77734375 0.03515625 C3.69644531 0.04417969 4.61554687 0.05320312 5.5625 0.0625 C6.27277344 0.07410156 6.98304687 0.08570312 7.71484375 0.09765625 C7.71484375 1.08765625 7.71484375 2.07765625 7.71484375 3.09765625 C5.01032631 5.60183906 2.14421364 6.83420419 -1.28515625 8.09765625 C-2.27515625 8.59265625 -2.27515625 8.59265625 -3.28515625 9.09765625 C-3.3828125 2.9453125 -3.3828125 2.9453125 -3.28515625 1.09765625 C-2.28515625 0.09765625 -2.28515625 0.09765625 0 0 Z " fill="#3ACE81" transform="translate(12.28515625,109.90234375)"/>
<path d="M0 0 C-2.45681635 2.82078915 -5.04774685 4.1559019 -8.4375 5.6875 C-9.38496094 6.12449219 -10.33242188 6.56148437 -11.30859375 7.01171875 C-14 8 -14 8 -18 8 C-18 7.01 -18 6.02 -18 5 C-12.375 2 -12.375 2 -9 2 C-9 1.34 -9 0.68 -9 0 C-5.62182575 -0.84454356 -3.32534757 -1.10844919 0 0 Z " fill="#6884D1" transform="translate(39,130)"/>
<path d="M0 0 C0.88042969 0.08378906 1.76085938 0.16757813 2.66796875 0.25390625 C4.41013672 0.40666016 4.41013672 0.40666016 6.1875 0.5625 C7.33605469 0.66691406 8.48460938 0.77132812 9.66796875 0.87890625 C12.68631199 0.98859985 15.08923936 0.74002389 18 0 C18 1.32 18 2.64 18 4 C15.30893093 5.34553453 13.12834578 5.20594114 10.125 5.25 C8.55105469 5.28867188 8.55105469 5.28867188 6.9453125 5.328125 C3.676553 4.96396612 2.31241815 4.30124705 0 2 C0 1.34 0 0.68 0 0 Z " fill="#131F29" transform="translate(56,127)"/>
<path d="M0 0 C0.99 0.33 1.98 0.66 3 1 C3 2.65 3 4.3 3 6 C-3.27 6 -9.54 6 -16 6 C-16.33 6.66 -16.66 7.32 -17 8 C-16.125 4.125 -16.125 4.125 -15 3 C-12.87691847 2.90057194 -10.75040328 2.87030816 -8.625 2.875 C-7.46226563 2.87242188 -6.29953125 2.86984375 -5.1015625 2.8671875 C-2 3 -2 3 1 4 C0.67 2.68 0.34 1.36 0 0 Z " fill="#13222D" transform="translate(74,117)"/>
<path d="M0 0 C0.99 0.66 1.98 1.32 3 2 C3 2.99 3 3.98 3 5 C-1.29 5 -5.58 5 -10 5 C-9.67 3.68 -9.34 2.36 -9 1 C-5.98131566 -0.50934217 -3.32702771 -0.17510672 0 0 Z " fill="#D3DBDF" transform="translate(69,115)"/>
<path d="M0 0 C2.64 0.66 5.28 1.32 8 2 C8 2.33 8 2.66 8 3 C6.3603125 3.2165625 6.3603125 3.2165625 4.6875 3.4375 C1.06877013 3.88288104 1.06877013 3.88288104 -2 5 C-2 9.95 -2 14.9 -2 20 C-3.32 20 -4.64 20 -6 20 C-6 15.71 -6 11.42 -6 7 C-5.67 7 -5.34 7 -5 7 C-5 10.63 -5 14.26 -5 18 C-4.34 18 -3.68 18 -3 18 C-3.14069196 15.87465341 -3.28770921 13.74972471 -3.4375 11.625 C-3.55931641 9.84996094 -3.55931641 9.84996094 -3.68359375 8.0390625 C-3.81084936 5.08481099 -3.81084936 5.08481099 -5 3 C-3.68 3 -2.36 3 -1 3 C-0.67 2.01 -0.34 1.02 0 0 Z " fill="#020E19" transform="translate(103,112)"/>
<path d="M0 0 C0.33 0 0.66 0 1 0 C1.27429625 5.39449293 1.36055646 8.51925805 -2 13 C-1.01 13 -0.02 13 1 13 C1 13.66 1 14.32 1 15 C-1.31 15.33 -3.62 15.66 -6 16 C-6 15.34 -6 14.68 -6 14 C-5.34 14 -4.68 14 -4 14 C-4 13.34 -4 12.68 -4 12 C-8.455 12.495 -8.455 12.495 -13 13 C-10.71540242 10.71540242 -8.87462656 10.02870252 -5.875 8.875 C-4.96492188 8.52179688 -4.05484375 8.16859375 -3.1171875 7.8046875 C-2.06917969 7.40636719 -2.06917969 7.40636719 -1 7 C-0.67 4.69 -0.34 2.38 0 0 Z " fill="#DEF9E4" transform="translate(41,97)"/>
<path d="M0 0 C0 0.99 0 1.98 0 3 C-0.99 3.33 -1.98 3.66 -3 4 C-3.6496875 4.7425 -3.6496875 4.7425 -4.3125 5.5 C-6.68067968 7.60504861 -8.91481553 7.65720173 -12 8 C-12 5.6875 -12 5.6875 -11 3 C-7.47856019 0.97872513 -4.04735389 0 0 0 Z " fill="#D5E111" transform="translate(39,115)"/>
<path d="M0 0 C4.51617599 -0.07654536 8.59085217 -0.10228696 13 1 C12.67 2.32 12.34 3.64 12 5 C7.71 4.67 3.42 4.34 -1 4 C-0.67 2.68 -0.34 1.36 0 0 Z " fill="#1E2C36" transform="translate(213,111)"/>
<path d="M0 0 C1.62418745 -0.08090971 3.24951745 -0.13914995 4.875 -0.1875 C5.77992188 -0.22230469 6.68484375 -0.25710937 7.6171875 -0.29296875 C8.79667969 -0.14794922 8.79667969 -0.14794922 10 0 C12 3 12 3 12 6 C6.06 5.01 6.06 5.01 0 4 C0 2.66666667 0 1.33333333 0 0 Z " fill="#EBF0F2" transform="translate(126,115)"/>
<path d="M0 0 C0 3 0 3 -2.0625 5.75 C-5 8 -5 8 -8.8125 7.8125 C-9.864375 7.544375 -10.91625 7.27625 -12 7 C-8.18765077 3.6497537 -4.66714289 1.83025211 0 0 Z " fill="#FBFBEF" transform="translate(40,118)"/>
<path d="M0 0 C1.21236328 0.01353516 1.21236328 0.01353516 2.44921875 0.02734375 C3.37154297 0.04474609 3.37154297 0.04474609 4.3125 0.0625 C3.8175 0.536875 3.3225 1.01125 2.8125 1.5 C1.19707803 2.82173698 1.19707803 2.82173698 1.3125 4.0625 C-0.3271875 4.2790625 -0.3271875 4.2790625 -2 4.5 C-5.61872987 4.94538104 -5.61872987 4.94538104 -8.6875 6.0625 C-8.3575 4.4125 -8.0275 2.7625 -7.6875 1.0625 C-4.80538698 0.10179566 -2.98899956 -0.04331883 0 0 Z " fill="#1E2A33" transform="translate(131.6875,110.9375)"/>
<path d="M0 0 C0.721875 0.103125 1.44375 0.20625 2.1875 0.3125 C2.1875 1.9625 2.1875 3.6125 2.1875 5.3125 C0.90004964 5.70172918 -0.39269597 6.07348036 -1.6875 6.4375 C-2.76644531 6.75074219 -2.76644531 6.75074219 -3.8671875 7.0703125 C-4.50914062 7.15023437 -5.15109375 7.23015625 -5.8125 7.3125 C-6.4725 6.6525 -7.1325 5.9925 -7.8125 5.3125 C-3.50480769 0.38942308 -3.50480769 0.38942308 0 0 Z " fill="#2A363F" transform="translate(157.8125,110.6875)"/>
<path d="M0 0 C0 0.66 0 1.32 0 2 C-4.455 3.485 -4.455 3.485 -9 5 C-8.67 6.32 -8.34 7.64 -8 9 C-8.639375 9.12375 -9.27875 9.2475 -9.9375 9.375 C-10.618125 9.58125 -11.29875 9.7875 -12 10 C-12.33 10.66 -12.66 11.32 -13 12 C-13 9.69 -13 7.38 -13 5 C-11.21046815 4.16209211 -9.41830305 3.32980604 -7.625 2.5 C-6.62726562 2.0359375 -5.62953125 1.571875 -4.6015625 1.09375 C-2 0 -2 0 0 0 Z " fill="#7B8BC2" transform="translate(30,130)"/>
<path d="M0 0 C1.65 0.33 3.3 0.66 5 1 C5 1.66 5 2.32 5 3 C7.31 3 9.62 3 12 3 C12 3.99 12 4.98 12 6 C7.07872966 6.16682272 3.49656104 6.24828052 -1 4 C-0.67 2.68 -0.34 1.36 0 0 Z " fill="#4A5662" transform="translate(208,127)"/>
<path d="M0 0 C0.99 0.495 0.99 0.495 2 1 C2 1.99 2 2.98 2 4 C5.3 4.66 8.6 5.32 12 6 C12 6.66 12 7.32 12 8 C10.37581255 8.08090971 8.75048255 8.13914995 7.125 8.1875 C5.76761719 8.23970703 5.76761719 8.23970703 4.3828125 8.29296875 C3.20332031 8.14794922 3.20332031 8.14794922 2 8 C-0.1519437 4.77208445 -0.20086443 3.71599191 0 0 Z " fill="#0F1E2B" transform="translate(164,115)"/>
<path d="M0 0 C1.5625 1.75 1.5625 1.75 3 4 C2.875 6.125 2.875 6.125 2 8 C1.01 8.66 0.02 9.32 -1 10 C-2.32 8.35 -3.64 6.7 -5 5 C-3.35 3.35 -1.7 1.7 0 0 Z " fill="#F1F3F3" transform="translate(183,113)"/>
<path d="M0 0 C1.65 0 3.3 0 5 0 C4.79375 0.7425 4.5875 1.485 4.375 2.25 C3.95591249 5.32330841 4.38050989 6.42786866 6 9 C4.35 9.33 2.7 9.66 1 10 C-0.1577506 6.52674819 -0.06866652 3.63932552 0 0 Z " fill="#253744" transform="translate(54,118)"/>
<path d="M0 0 C0 2.31 0 4.62 0 7 C-0.33 6.01 -0.66 5.02 -1 4 C-1.67546875 4.22816406 -2.3509375 4.45632812 -3.046875 4.69140625 C-3.93890625 4.97886719 -4.8309375 5.26632813 -5.75 5.5625 C-6.63171875 5.85253906 -7.5134375 6.14257812 -8.421875 6.44140625 C-11.07834316 7.01697435 -12.47031106 6.89248371 -15 6 C-12.87717331 4.99539469 -10.75166979 3.99644398 -8.625 3 C-7.44164062 2.443125 -6.25828125 1.88625 -5.0390625 1.3125 C-2 0 -2 0 0 0 Z " fill="#5BC48F" transform="translate(41,97)"/>
<path d="M0 0 C0 0.33 0 0.66 0 1 C-1.5778125 1.37125 -1.5778125 1.37125 -3.1875 1.75 C-6.82738728 2.76681062 -9.12611204 4.53666746 -12 7 C-12.66 7 -13.32 7 -14 7 C-13.69054606 4.13755104 -13.31514492 2.39393114 -11.5 0.125 C-7.63656327 -1.61354653 -4.08157275 -0.72386867 0 0 Z " fill="#101E29" transform="translate(69,113)"/>
<path d="M0 0 C1.65 0 3.3 0 5 0 C4.45276317 3.37462715 3.9451 5.08235 2 8 C0.68 7.67 -0.64 7.34 -2 7 C-1.34 4.69 -0.68 2.38 0 0 Z " fill="#18242F" transform="translate(201,112)"/>
<path d="M0 0 C0.66 0 1.32 0 2 0 C2 4.29 2 8.58 2 13 C0.68 12.67 -0.64 12.34 -2 12 C-1.67 11.67 -1.34 11.34 -1 11 C-1 9.00249552 -1.00355875 7.00444719 -1.0625 5.0078125 C-1 3 -1 3 0 0 Z " fill="#081724" transform="translate(115,119)"/>
<path d="M0 0 C0.33 0 0.66 0 1 0 C1 5.28 1 10.56 1 16 C-0.32 16 -1.64 16 -3 16 C-3.33 15.34 -3.66 14.68 -4 14 C-4.99 13.34 -5.98 12.68 -7 12 C-5.02 11.67 -3.04 11.34 -1 11 C-0.67 7.37 -0.34 3.74 0 0 Z " fill="#1C2B35" transform="translate(141,116)"/>
<path d="M0 0 C0.99 0.66 1.98 1.32 3 2 C1.1128125 2.12375 1.1128125 2.12375 -0.8125 2.25 C-4.33811212 2.66557143 -4.33811212 2.66557143 -7 5.0625 C-7.33 5.701875 -7.66 6.34125 -8 7 C-8.66 6.67 -9.32 6.34 -10 6 C-9.67 5.01 -9.34 4.02 -9 3 C-9.66 2.67 -10.32 2.34 -11 2 C-7.3586453 -0.33046701 -4.2475253 -0.30891093 0 0 Z " fill="#222F3B" transform="translate(133,119)"/>
<path d="M0 0 C-0.33 0.99 -0.66 1.98 -1 3 C-2.98 3.33 -4.96 3.66 -7 4 C-7.33 7.96 -7.66 11.92 -8 16 C-8.33 16 -8.66 16 -9 16 C-9.0810206 13.89646505 -9.13919907 11.79204048 -9.1875 9.6875 C-9.22230469 8.51574219 -9.25710937 7.34398438 -9.29296875 6.13671875 C-9 3 -9 3 -7.6875 1.09375 C-5.1606671 -0.54401207 -2.93079906 -0.1953866 0 0 Z " fill="#C5CACE" transform="translate(160,116)"/>
<path d="M0 0 C0.66 0.33 1.32 0.66 2 1 C1.360625 1.4125 0.72125 1.825 0.0625 2.25 C-2.20990931 4.17810487 -2.60196439 5.11424181 -3 8 C-1.35 7.67 0.3 7.34 2 7 C1.67 7.66 1.34 8.32 1 9 C-2.0625 9.625 -2.0625 9.625 -5 10 C-5 7.69 -5 5.38 -5 3 C-4.34 3 -3.68 3 -3 3 C-3 2.34 -3 1.68 -3 1 C-2.01 0.67 -1.02 0.34 0 0 Z " fill="#D1E363" transform="translate(30,115)"/>
<path d="M0 0 C0.721875 0.268125 1.44375 0.53625 2.1875 0.8125 C1.1875 3.8125 1.1875 3.8125 -0.8125 4.8125 C-3.1454866 4.85272391 -5.47956666 4.85570247 -7.8125 4.8125 C-3.50480769 -0.23365385 -3.50480769 -0.23365385 0 0 Z " fill="#E4EBEE" transform="translate(220.8125,124.1875)"/>
<path d="M0 0 C0.66 0 1.32 0 2 0 C2.12375 0.5775 2.2475 1.155 2.375 1.75 C3.00648824 4.02335767 3.88858191 5.9253529 5 8 C3.33388095 8.042721 1.66617115 8.04063832 0 8 C-1 7 -1 7 -1.125 4 C-1 1 -1 1 0 0 Z " fill="#162631" transform="translate(122,122)"/>
<path d="M0 0 C-0.33 0.99 -0.66 1.98 -1 3 C-1.99 3.33 -2.98 3.66 -4 4 C-4.33 4.99 -4.66 5.98 -5 7 C-7.475 6.01 -7.475 6.01 -10 5 C-3.63636364 0 -3.63636364 0 0 0 Z " fill="#D0F6E8" transform="translate(28,110)"/>
<path d="M0 0 C0.66 0 1.32 0 2 0 C2 0.66 2 1.32 2 2 C3.32 2.33 4.64 2.66 6 3 C4.68 3 3.36 3 2 3 C1.67 3.66 1.34 4.32 1 5 C-2.63 4.34 -6.26 3.68 -10 3 C-10 2.67 -10 2.34 -10 2 C-6.7 2 -3.4 2 0 2 C0 1.34 0 0.68 0 0 Z " fill="#C2CACE" transform="translate(136,130)"/>
<path d="M0 0 C3.63 0 7.26 0 11 0 C10.67 0.99 10.34 1.98 10 3 C6.7 3 3.4 3 0 3 C0 2.01 0 1.02 0 0 Z " fill="#07131F" transform="translate(213,129)"/>
<path d="M0 0 C-0.25561323 2.3431213 -0.59270772 4.67843403 -1 7 C-1.99 7.495 -1.99 7.495 -3 8 C-3 7.34 -3 6.68 -3 6 C-4.32 5.67 -5.64 5.34 -7 5 C-2.25 0 -2.25 0 0 0 Z " fill="#29323C" transform="translate(227,123)"/>
<path d="M0 0 C0 0.66 0 1.32 0 2 C0.66 2.33 1.32 2.66 2 3 C-1.3 3 -4.6 3 -8 3 C-8.33 2.34 -8.66 1.68 -9 1 C-5.8035914 -0.06546953 -3.34252724 -0.07427838 0 0 Z " fill="#0E1B26" transform="translate(219,120)"/>
<path d="M0 0 C1.33333333 1.33333333 2.66666667 2.66666667 4 4 C0.7 4 -2.6 4 -6 4 C-5.67 3.01 -5.34 2.02 -5 1 C-3 0 -3 0 0 0 Z " fill="#EDF1F2" transform="translate(65,115)"/>
<path d="M0 0 C0.99 0 1.98 0 3 0 C2.67 1.32 2.34 2.64 2 4 C3.65 4 5.3 4 7 4 C4.68143083 5.54571278 2.49361571 6.79618552 0 8 C0 5.36 0 2.72 0 0 Z " fill="#61C694" transform="translate(9,111)"/>
<path d="M0 0 C0.99 0.33 1.98 0.66 3 1 C3.33 2.65 3.66 4.3 4 6 C2.02 5.34 0.04 4.68 -2 4 C-1.34 2.68 -0.68 1.36 0 0 Z " fill="#D3DCE0" transform="translate(134,115)"/>
<path d="M0 0 C2.64 0.66 5.28 1.32 8 2 C8 2.33 8 2.66 8 3 C6.4221875 3.2165625 6.4221875 3.2165625 4.8125 3.4375 C1.84539451 3.87526966 -1.06794366 4.37804866 -4 5 C-4.33 4.34 -4.66 3.68 -5 3 C-3.68 3 -2.36 3 -1 3 C-0.67 2.01 -0.34 1.02 0 0 Z " fill="#0B1925" transform="translate(103,112)"/>
<path d="M0 0 C2.475 0.495 2.475 0.495 5 1 C4.67 2.65 4.34 4.3 4 6 C2.68 5.67 1.36 5.34 0 5 C0 3.35 0 1.7 0 0 Z " fill="#1B2D38" transform="translate(82,112)"/>
<path d="M0 0 C2.9375 0.375 2.9375 0.375 6 1 C6.33 1.66 6.66 2.32 7 3 C6.34 3 5.68 3 5 3 C4.34 4.32 3.68 5.64 3 7 C3 6.01 3 5.02 3 4 C2.01 3.67 1.02 3.34 0 3 C0.66 3 1.32 3 2 3 C2 2.34 2 1.68 2 1 C1.34 0.67 0.68 0.34 0 0 Z " fill="#2E3E47" transform="translate(174,120)"/>
<path d="M0 0 C1.36125 0.37125 1.36125 0.37125 2.75 0.75 C0.65217213 2.84782787 -0.6299207 3.4009396 -3.375 4.375 C-4.09945313 4.63539062 -4.82390625 4.89578125 -5.5703125 5.1640625 C-6.40175781 5.45410156 -6.40175781 5.45410156 -7.25 5.75 C-7.25 3.75 -7.25 3.75 -5.625 1.5625 C-3.25 -0.25 -3.25 -0.25 0 0 Z " fill="#E0FCF1" transform="translate(19.25,104.25)"/>
<path d="M0 0 C0.66 0.33 1.32 0.66 2 1 C1.01 3.31 0.02 5.62 -1 8 C-1.66 8 -2.32 8 -3 8 C-3.625 6.125 -3.625 6.125 -4 4 C-2.66666667 2.66666667 -1.33333333 1.33333333 0 0 Z " fill="#E7EDEF" transform="translate(197,119)"/>
<path d="M0 0 C1.65 0 3.3 0 5 0 C5 1.98 5 3.96 5 6 C4.01 5.67 3.02 5.34 2 5 C0.8125 2.4375 0.8125 2.4375 0 0 Z " fill="#14222D" transform="translate(183,112)"/>
<path d="M0 0 C2.97 0 5.94 0 9 0 C6.1709277 2.8290723 5.61855575 3.37611108 2 4 C1.34 2.68 0.68 1.36 0 0 Z " fill="#2D3B46" transform="translate(127,111)"/>
<path d="M0 0 C-0.33 1.32 -0.66 2.64 -1 4 C-3.875 4.625 -3.875 4.625 -7 5 C-7.66 4.34 -8.32 3.68 -9 3 C-2.25 0 -2.25 0 0 0 Z " fill="#788CC4" transform="translate(39,126)"/>
<path d="M0 0 C0.33 0 0.66 0 1 0 C2.125 7.75 2.125 7.75 1 10 C0.34 10 -0.32 10 -1 10 C-0.67 8.02 -0.34 6.04 0 4 C-0.66 3.67 -1.32 3.34 -2 3 C-1.34 3 -0.68 3 0 3 C0 2.01 0 1.02 0 0 Z " fill="#283640" transform="translate(196,124)"/>
<path d="M0 0 C0.66 0.99 1.32 1.98 2 3 C1.34 4.32 0.68 5.64 0 7 C-0.99 7 -1.98 7 -3 7 C-2.690625 6.401875 -2.38125 5.80375 -2.0625 5.1875 C-0.89790296 2.91043228 -0.89790296 2.91043228 0 0 Z " fill="#27353D" transform="translate(191,133)"/>
<path d="M0 0 C-0.75 2.9375 -0.75 2.9375 -2 6 C-4.125 6.875 -4.125 6.875 -6 7 C-6 4 -6 4 -4.125 1.8125 C-2 0 -2 0 0 0 Z " fill="#F0F1F2" transform="translate(229,127)"/>
<path d="M0 0 C1.98 0.495 1.98 0.495 4 1 C4 1.99 4 2.98 4 4 C2.35 4 0.7 4 -1 4 C-0.67 2.68 -0.34 1.36 0 0 Z " fill="#16232E" transform="translate(208,127)"/>
<path d="M0 0 C0.66 0 1.32 0 2 0 C2 2.31 2 4.62 2 7 C0.68 6.67 -0.64 6.34 -2 6 C-2 5.34 -2 4.68 -2 4 C-1.34 4 -0.68 4 0 4 C0 2.68 0 1.36 0 0 Z " fill="#4C7D57" transform="translate(23,118)"/>
<path d="M0 0 C0.33 0.66 0.66 1.32 1 2 C-1.25 3.5625 -1.25 3.5625 -4 5 C-5.32 4.67 -6.64 4.34 -8 4 C-5.36 2.68 -2.72 1.36 0 0 Z " fill="#F9FBB1" transform="translate(40,118)"/>
<path d="M0 0 C0.66 0.33 1.32 0.66 2 1 C1.67 2.32 1.34 3.64 1 5 C-0.32 5.33 -1.64 5.66 -3 6 C-3 4.35 -3 2.7 -3 1 C-2.01 0.67 -1.02 0.34 0 0 Z " fill="#4B8981" transform="translate(22,117)"/>
<path d="M0 0 C0.66 0.33 1.32 0.66 2 1 C2.625 3.5625 2.625 3.5625 3 6 C1.35 5.67 -0.3 5.34 -2 5 C-1.34 3.35 -0.68 1.7 0 0 Z " fill="#22313F" transform="translate(201,114)"/>
<path d="M0 0 C2.31 0 4.62 0 7 0 C7.33 0.66 7.66 1.32 8 2 C2.25 3.125 2.25 3.125 0 2 C0 1.34 0 0.68 0 0 Z " fill="#283642" transform="translate(104,111)"/>
<path d="M0 0 C1.32 0 2.64 0 4 0 C4 0.66 4 1.32 4 2 C3.01 2.495 3.01 2.495 2 3 C1.59270772 5.32156597 1.25561323 7.6568787 1 10 C0.67 10 0.34 10 0 10 C0 6.7 0 3.4 0 0 Z " fill="#EEFDF7" transform="translate(8,108)"/>
</svg>
